<?xml version="1.0" standalone="no"?>
<!DOCTYPE svg PUBLIC "-//W3C//DTD SVG 20010904//EN"
 "http://www.w3.org/TR/2001/REC-SVG-20010904/DTD/svg10.dtd">
<svg version="1.0" xmlns="http://www.w3.org/2000/svg"
 width="475.000000pt" height="475.000000pt" viewBox="0 0 475.000000 475.000000"
 preserveAspectRatio="xMidYMid meet">

<g transform="translate(0.000000,475.000000) scale(0.100000,-0.100000)"
fill="#000000" stroke="none">
<path d="M2175 4744 c-592 -61 -1102 -304 -1500 -715 -351 -362 -560 -777
-646 -1280 -20 -114 -23 -169 -23 -374 0 -270 17 -402 79 -629 221 -805 856
-1440 1661 -1661 227 -62 359 -79 629 -79 205 0 260 3 374 23 503 86 924 298
1279 645 383 374 617 831 699 1366 27 178 24 532 -6 709 -86 502 -297 922
-645 1280 -360 369 -793 598 -1306 687 -116 21 -186 26 -350 29 -113 2 -223 1
-245 -1z m-1203 -1545 c50 -13 98 -69 98 -116 0 -28 -8 -44 -39 -74 -38 -38
-71 -48 -99 -30 -10 6 -9 11 4 22 9 8 24 30 32 49 14 33 13 35 -14 58 -75 65
-272 -25 -334 -153 -46 -94 -49 -216 -7 -290 33 -58 75 -78 161 -78 91 0 145
23 225 97 34 31 68 56 76 56 36 0 2 -104 -54 -163 -51 -56 -96 -72 -201 -72
-83 0 -102 3 -150 27 -81 40 -125 81 -157 146 -24 50 -28 69 -28 147 0 80 4
97 32 157 84 178 267 265 455 217z m1029 -5 c8 -10 7 -49 -6 -156 -12 -96 -17
-208 -17 -340 l1 -197 -34 -7 c-43 -8 -65 8 -65 47 0 37 -16 45 -34 16 -23
-34 -88 -67 -133 -67 -47 0 -120 35 -146 71 -27 38 -34 134 -13 196 20 61 75
127 127 153 43 22 109 26 158 9 18 -6 34 -9 37 -6 3 3 10 50 14 104 11 127 27
191 49 195 23 6 49 -2 62 -18z m955 -4 c42 -18 84 -71 84 -106 0 -30 -36 -82
-69 -99 -57 -29 -99 -13 -62 24 23 23 36 64 27 86 -16 44 -121 43 -211 -1
-109 -54 -166 -145 -173 -280 -4 -72 -1 -89 20 -136 32 -69 69 -89 167 -90 87
-1 153 28 234 101 55 51 87 61 87 28 0 -34 -63 -138 -101 -166 -87 -63 -231
-68 -338 -11 -125 67 -178 166 -168 310 17 254 284 434 503 340z m1079 -12
c37 -16 55 -57 55 -121 0 -67 -27 -109 -57 -91 -13 8 -19 28 -23 76 -6 73 -22
103 -49 88 -23 -12 -41 -76 -48 -167 l-6 -73 40 0 c21 0 44 5 50 11 6 6 32 16
59 23 l49 12 13 79 c15 90 25 107 61 103 26 -3 26 -4 26 -86 l0 -82 56 0 c54
0 79 -12 79 -37 0 -17 -32 -30 -92 -38 -57 -7 -56 -3 -62 -223 -2 -85 -8 -158
-14 -164 -5 -5 -22 -8 -38 -6 -47 5 -55 46 -48 227 l6 155 -23 -16 c-13 -8
-51 -18 -83 -22 -93 -12 -86 2 -86 -182 0 -154 -1 -164 -20 -174 -30 -16 -57
-4 -69 32 -6 17 -11 89 -11 160 0 126 -1 129 -20 123 -22 -7 -50 9 -50 29 0 7
15 20 34 29 32 15 35 20 41 74 12 103 33 161 77 209 52 57 104 74 153 52z
m-398 -244 c61 -39 75 -100 56 -245 -12 -83 -13 -121 -5 -146 15 -48 6 -63
-34 -63 -25 0 -38 7 -50 25 l-16 25 -30 -25 c-43 -37 -99 -49 -142 -31 -116
49 -46 200 131 278 l45 20 -4 50 c-6 59 -26 83 -61 74 -29 -7 -55 -56 -59
-112 -3 -33 -7 -39 -28 -42 -14 -2 -34 4 -44 11 -18 13 -19 18 -7 57 34 112
164 177 248 124z m-290 -20 c22 -22 24 -31 19 -66 -9 -54 -23 -78 -46 -78 -39
0 -50 11 -50 51 0 51 -13 49 -36 -3 -13 -31 -19 -81 -23 -183 l-6 -139 -32
-10 c-58 -16 -63 -3 -63 159 0 175 9 265 26 272 7 3 27 -2 43 -10 27 -13 32
-13 43 0 32 39 90 42 125 7z m-1037 1 c33 -17 60 -61 60 -97 0 -85 -130 -148
-210 -103 -37 21 -40 19 -40 -25 0 -52 18 -88 51 -106 59 -30 122 -4 167 71
35 58 62 60 62 6 0 -137 -137 -221 -266 -162 -61 28 -104 101 -104 176 0 87
74 210 145 241 41 18 100 17 135 -1z m-882 -22 c94 -69 101 -254 14 -347 -77
-82 -229 -73 -296 17 -28 39 -34 149 -11 210 18 48 71 106 120 131 41 21 138
15 173 -11z m990 -726 c7 -9 1 -48 -24 -136 -18 -69 -38 -129 -42 -133 -12
-12 -42 1 -42 19 0 13 39 161 61 231 11 33 29 41 47 19z m-121 -54 c4 -11 -5
-26 -27 -46 l-34 -30 32 -27 c34 -28 42 -57 18 -66 -17 -7 -126 73 -126 91 0
16 97 95 117 95 7 0 16 -7 20 -17z m244 -24 c27 -22 49 -47 49 -55 0 -20 -107
-97 -125 -90 -25 9 -17 33 20 63 l36 28 -37 31 c-25 21 -35 37 -31 48 10 26
36 19 88 -25z m-528 -481 c14 -17 17 -32 13 -67 -23 -184 -29 -546 -10 -594 3
-8 -7 -22 -21 -31 -22 -15 -32 -16 -55 -6 -16 7 -32 19 -36 28 -4 10 -9 82
-10 162 l-3 145 -108 3 c-59 2 -123 0 -140 -3 l-33 -6 0 -157 c0 -110 -4 -162
-12 -170 -19 -19 -66 -14 -89 9 -21 21 -22 28 -15 165 l6 143 -42 3 c-56 4
-57 27 -3 47 22 8 42 16 44 17 1 2 8 76 15 166 l11 163 33 3 c58 6 62 -4 62
-167 l0 -148 138 5 c75 2 139 6 141 8 2 1 5 63 8 136 6 183 5 182 51 175 21
-4 45 -16 55 -29z m205 16 c17 -12 22 -25 22 -63 0 -73 -31 -99 -88 -76 -39
17 -49 50 -27 101 23 57 51 68 93 38z m1073 -3 c19 -16 24 -28 23 -66 -1 -27
-7 -53 -17 -62 -21 -21 -63 -20 -88 3 -41 37 -6 144 46 144 7 0 23 -9 36 -19z
m-195 -11 l27 -11 -6 -82 c-4 -45 -12 -125 -18 -177 -6 -52 -9 -171 -7 -265
l3 -170 -39 -10 c-33 -8 -40 -6 -52 10 -8 10 -14 32 -14 48 l0 29 -46 -41
c-54 -47 -99 -59 -162 -42 -90 24 -124 70 -124 170 -1 46 5 81 20 113 25 57
91 123 139 139 34 11 115 8 159 -6 20 -6 21 -2 27 83 9 116 25 194 45 210 19
14 15 14 48 2z m-897 -273 c7 -10 9 -75 4 -221 -7 -222 -10 -234 -58 -216 -45
17 -48 29 -43 231 3 174 6 192 23 205 24 18 59 18 74 1z m1069 4 c11 -7 13
-48 7 -220 -8 -228 -12 -239 -62 -220 -37 14 -43 41 -42 186 1 161 10 241 30
254 18 11 50 11 67 0z m-694 -31 c26 -25 33 -84 24 -200 -5 -52 -5 -116 -2
-142 5 -44 4 -49 -19 -57 -36 -14 -64 -3 -75 28 -5 14 -7 95 -4 179 3 100 1
152 -6 152 -14 0 -57 -107 -97 -244 -19 -66 -35 -121 -35 -123 0 -8 -90 -2
-95 7 -4 6 -2 59 4 118 6 59 13 147 15 197 l4 89 32 9 c52 13 60 5 60 -65 l0
-63 33 58 c18 32 43 65 57 73 31 17 78 10 104 -16z"/>
<path d="M1676 2851 c-43 -47 -58 -153 -31 -216 40 -97 165 -46 210 84 20 59
19 90 -2 98 -10 4 -33 17 -52 30 -43 29 -101 31 -125 4z"/>
<path d="M3535 2665 c-57 -44 -79 -69 -96 -108 -10 -23 -10 -30 1 -37 39 -24
157 105 148 162 -3 19 -6 18 -53 -17z"/>
<path d="M2178 2840 l-33 -30 24 -20 c55 -47 121 -3 95 64 -10 25 -51 19 -86
-14z"/>
<path d="M1287 2833 c-37 -40 -57 -94 -57 -158 0 -103 42 -159 101 -135 84 35
95 250 15 305 -27 20 -28 19 -59 -12z"/>
<path d="M2798 1258 c-46 -35 -67 -182 -34 -233 39 -60 96 -56 154 11 26 29
45 64 56 105 10 33 16 62 14 63 -2 1 -23 15 -47 30 -52 33 -117 44 -143 24z"/>
</g>
</svg>
