<?xml version="1.0" ?><!DOCTYPE svg  PUBLIC '-//W3C//DTD SVG 1.1//EN'  'http://www.w3.org/Graphics/SVG/1.1/DTD/svg11.dtd'><svg enable-background="new 0 0 512 512" id="Layer_1" version="1.1" viewBox="0 0 512 512" xml:space="preserve" xmlns="http://www.w3.org/2000/svg" xmlns:xlink="http://www.w3.org/1999/xlink"><g><path d="M505.4,250.7c0.9,57.3-14.6,109.6-48.9,155.7c-41.9,56.3-97.8,90.3-167.5,99.2   c-76.4,9.7-143.8-12.1-200.5-64.3c-45-41.4-71.3-93.1-78.2-153.8C1.7,210.6,23.3,142.7,75.8,85.6c40.1-43.7,90.1-69.8,148.9-77.1   C301.3-1,368.8,20.6,425.6,72.9c44.9,41.4,70.3,93.3,78.2,153.8c0.5,4,0.8,8,1.1,11.9C505.1,242.7,505.3,246.7,505.4,250.7z    M256.7,488.2c124.3,0.4,227.7-100.6,229.2-228.3c1.5-130.4-102.5-232.8-226.4-234.1C133.5,24.5,28.8,126.6,28.1,254.9   C27.5,384.4,129.7,488.2,256.7,488.2z" fill="#0466D2"/><path d="M172.2,243c1.6-1.3,0.8-3.1,0.8-4.6c0.1-17.6,0.1-35.3,0-52.9c0-3.7,0.6-5.2,4.8-5.1   c12.9,0.2,12.9,0,12.9,13.1c0,9.8,0,19.6,0,29.3c2.1,0.6,2.6-1,3.5-1.8c16.8-14.1,44.7-12.5,59.6,3.5c6.5,7,9.7,15.4,10.3,24.8   c0.2,3.3,0.1,6.7,0.1,10c-0.7,3-1.4,6-2.1,8.9c-5.4,12.7-14.1,21.7-27.8,25c-15.5,3.7-29.7,1.3-41.9-9.7c-0.5-0.4-1-0.7-1.5-1.1   c-0.3,0.5-0.6,0.7-0.6,0.9c-0.4,8.6-0.4,8.6-9,8.6c-8.9,0-8.7,0-8.4-8.8c0.3-8.5,0-17,0-25.5C173.4,252.7,172.7,247.9,172.2,243z    M217.9,223.6c-16.5,0.1-27.4,11.9-27.3,29.5c0.1,17.5,11.2,29.6,27.5,29.7c16.2,0.1,27.9-12.7,27.7-30.1   C245.6,235.2,234.4,223.5,217.9,223.6z" fill="#0466D2"/><path d="M262,268.1c0.7-3,1.4-6,2.1-8.9c7-11.7,18.8-13.8,30.9-15.2c9.6-1.1,19.3-1,29-0.7c4.2,0.1,4.7-1.6,4.2-5   c-0.9-6.5-4.1-11.2-10.5-13.3c-7-2.3-14.1-2.5-21.1-0.4c-4.3,1.3-7.8,3.8-9.4,8.2c-0.5,1.4-1,2.3-2.7,2.3c-4.7-0.1-9.3,0-14,0   c-2.1,0-2.4-0.8-1.9-2.8c1.7-7.3,6-12.8,12.7-15.7c16.3-6.9,32.9-7,49.5-0.8c2.5,0.9,4,3.8,7.2,3.2c0,0-0.1-0.1-0.1-0.1   c-1.1,1.4,0.4,1.7,1.1,2.4c2.8,3.9,5.9,7.5,6.1,12.6c1.6,7.7,0.7,15.5,0.9,23.3c0.2,10.5,0,21,0.3,31.5c0,2.3-0.3,3.5-2.8,3.2   c-0.5-0.1-1,0-1.5,0c-3.5,0-7.4,0.9-10.4-0.4c-3.7-1.6-0.4-6.4-2.5-9.7c-1.7,1.6-3.4,3.1-5.1,4.5c-12.8,10.4-38.2,11.2-51.8,1.8   C265.1,283.4,262.4,276.3,262,268.1z M313.5,255c-7.3,0-14.7,0.1-21.8,2c-7.1,1.9-10.6,5.6-10.8,11.3c-0.2,6.3,3.2,11.1,9.8,13.5   c5.2,1.9,10.5,1.6,15.8,1c12.9-1.4,21.8-11.6,21.8-24.4c0-2.5-0.5-3.6-3.3-3.5C321.2,255.2,317.4,255,313.5,255z" fill="#F4B006"/><path d="M172.2,243c0.6,4.9,1.2,9.7,0.6,14.7c-21.8,0-43.6,0.1-65.4,0c-4.4,0-5.5,1.1-4.4,5.4   c2.6,10.6,10.2,17.8,21.4,19.7c11.2,1.9,21.5-2.1,26.8-10.9c1.1-1.8,2.3-2.5,4.4-2.4c3.8,0.1,7.7,0.2,11.5,0c3-0.1,3.4,1.2,2.5,3.6   c-2.7,7.9-8.1,13.5-15.5,16.7c-16.2,6.9-32.8,7.3-48.9,0.1c-15.2-6.7-22.8-23.2-20.8-41.2c3.1-27.3,21.7-37.6,47.2-37.1   c5.2,0.1,10.3,0.7,15.2,2.3C161.1,218.4,169.4,228.3,172.2,243z M128.5,245.9c7.3,0,14.6-0.2,21.9,0.1c3.6,0.1,4.2-1.2,3.6-4.3   c-1.4-7.8-5.7-13.4-13-16.4c-6-2.4-12.2-2.6-18.6-1.5c-9.9,1.7-17.1,8.6-19.3,18.3c-0.6,2.7-0.3,3.9,2.9,3.8   C113.6,245.8,121,245.9,128.5,245.9z" fill="#E5363C"/><path d="M345.1,233.9c-0.1-5.1-3.3-8.8-6.1-12.6c0.1-1,0.2-2-1.1-2.4c0,0,0.1,0.1,0.1,0.1c-1.4-3.5-0.7-4.4,3.5-5   c11.6-1.7,17.8,2.6,22.2,13.6c5.7,14.3,13.5,27.8,20.4,41.6c0.7,1.4,1.6,2.8,2.9,4.9c4.8-9.5,9.3-18.3,13.7-27.1   c4.8-9.7,9.7-19.3,14.3-29.1c1.3-2.8,2.9-4.2,6.1-3.8c4.5,0.6,10.9-2.1,13.1,1.2c1.7,2.5-3.1,7.7-5.1,11.7   c-15,29.6-30.2,59.2-45.1,88.9c-2,4.1-4.4,5.6-8.8,5.2c-4.3-0.4-8.6-0.1-13.7-0.1c4.6-8.8,8.8-17.1,13.3-25.2   c1.7-3,1.9-5.4,0.1-8.6c-9.1-16.6-17.9-33.4-26.8-50.1C347.5,235.9,347.5,233.8,345.1,233.9z" fill="#88B91B"/></g></svg>