<?xml version="1.0" ?><!DOCTYPE svg  PUBLIC '-//W3C//DTD SVG 1.1//EN'  'http://www.w3.org/Graphics/SVG/1.1/DTD/svg11.dtd'><svg enable-background="new 0 0 100 100" height="100px" id="Layer_1" version="1.1" viewBox="0 0 100 100" width="100px" xml:space="preserve" xmlns="http://www.w3.org/2000/svg" xmlns:xlink="http://www.w3.org/1999/xlink"><circle cx="50" cy="50" fill="#D6D6D6" r="46.16"/><g><path d="M36.082,63.588c2.854,0.156,6.475-1.752,8.562-3.773c8.934-8.643-0.518-26.801-12.775-22.803   c-3.594,1.17-6.828,2.441-8.35,5.92c-1.471,3.367-2.41,6.734-1.439,10.332C23.85,59.83,29.578,63.225,36.082,63.588z" fill="#236CD6"/><path d="M57.881,61.328c2.156,1.877,6.186,2.592,9.074,2.281c12.357-1.334,16.049-21.469,3.92-25.844   c-3.555-1.281-6.889-2.264-10.227-0.453c-3.227,1.756-6.035,3.836-7.479,7.271C50.533,50.852,52.969,57.049,57.881,61.328z" fill="#FD0083"/></g></svg>