<svg version="1.1" id="Layer_1" xmlns="http://www.w3.org/2000/svg" xmlns:xlink="http://www.w3.org/1999/xlink" x="0px" y="0px"
	 width="100%" viewBox="0 0 400 400" enable-background="new 0 0 400 400" xml:space="preserve">
<path fill="#FAFAFA" opacity="1.000000" stroke="none" 
	d="
M401.000000,173.000000 
	C401.000000,191.354233 401.000000,209.708450 400.638550,228.225937 
	C399.852264,229.224609 399.234039,230.015930 399.032043,230.902130 
	C396.529999,241.879074 394.982605,253.168091 391.438232,263.792572 
	C384.857544,283.518646 375.420166,301.906189 363.107269,318.858521 
	C349.684509,337.338867 333.866272,353.356720 314.865112,365.809784 
	C302.970123,373.605621 290.112000,380.090088 277.209717,386.148651 
	C262.763458,392.932190 247.338730,396.966675 231.457062,399.071564 
	C230.568451,399.189301 229.815887,400.333527 229.000000,401.000000 
	C210.645767,401.000000 192.291550,401.000000 173.774048,400.638550 
	C172.775345,399.852295 171.983978,399.234039 171.097733,399.032013 
	C160.120789,396.530029 148.831787,394.982605 138.207352,391.438232 
	C118.481277,384.857513 100.093742,375.420074 83.141418,363.107208 
	C64.661072,349.684479 48.643284,333.866211 36.190216,314.865112 
	C28.394402,302.970123 21.909910,290.112000 15.851347,277.209747 
	C9.067758,262.763519 5.033357,247.338730 2.928442,231.457062 
	C2.810667,230.568451 1.666460,229.815887 1.000000,229.000000 
	C1.000000,210.645767 1.000000,192.291550 1.361484,173.774063 
	C2.147763,172.775375 2.765960,171.984009 2.967957,171.097794 
	C5.469958,160.120850 7.017385,148.831879 10.561749,138.207443 
	C17.142467,118.481339 26.579849,100.093773 38.892780,83.141464 
	C52.315540,64.661133 68.133766,48.643276 87.134888,36.190212 
	C99.029877,28.394403 111.887985,21.909912 124.790237,15.851357 
	C139.236496,9.067774 154.661255,5.033356 170.542938,2.928439 
	C171.431549,2.810667 172.184113,1.666458 173.000000,0.999999 
	C191.354233,1.000000 209.708450,1.000000 228.225937,1.361484 
	C229.224640,2.147762 230.015991,2.765955 230.902222,2.967957 
	C241.879181,5.469975 253.168182,7.017437 263.792664,10.561784 
	C283.518768,17.142458 301.906311,26.579870 318.858612,38.892826 
	C337.338867,52.315598 353.356812,68.133720 365.809784,87.134895 
	C373.605530,99.029938 380.090149,111.887985 386.148682,124.790253 
	C392.932190,139.236511 396.966675,154.661255 399.071533,170.542938 
	C399.189301,171.431549 400.333527,172.184113 401.000000,173.000000 
M234.978714,258.891785 
	C234.978714,258.891785 234.920273,258.796448 235.850006,258.946686 
	C240.629059,258.630127 245.449463,258.608368 250.179825,257.944702 
	C268.205902,255.415619 284.063995,248.032837 297.609589,235.872040 
	C312.581116,222.431091 321.526154,205.625397 324.906036,185.842392 
	C327.524170,170.517838 326.268951,155.347519 320.778900,140.936005 
	C315.096252,126.018974 305.804016,113.446968 293.100494,103.373245 
	C275.990417,89.805176 256.530273,84.003014 234.049500,84.149780 
	C193.509979,84.149780 152.970444,84.149780 111.911705,84.149780 
	C111.911705,86.741104 111.911705,88.699265 111.911705,90.657425 
	C111.911705,141.413025 111.906044,192.168640 111.920082,242.924240 
	C111.921555,248.246506 112.039276,253.568741 112.019440,259.845703 
	C112.007637,282.314606 112.075035,304.784088 111.906281,327.251831 
	C111.878067,331.008606 113.034615,332.050964 116.736359,332.039154 
	C154.517242,331.918823 192.298920,331.901520 230.079544,332.057648 
	C234.178940,332.074585 235.073883,330.712250 235.049896,326.907104 
	C234.907166,304.272644 234.992462,281.636749 234.978714,258.891785 
z"/>
<path fill="#000000" opacity="1.000000" stroke="none" 
	d="
M172.531342,0.999999 
	C172.184113,1.666458 171.431549,2.810667 170.542938,2.928439 
	C154.661255,5.033356 139.236496,9.067774 124.790237,15.851357 
	C111.887985,21.909912 99.029877,28.394403 87.134888,36.190212 
	C68.133766,48.643276 52.315540,64.661133 38.892780,83.141464 
	C26.579849,100.093773 17.142467,118.481339 10.561749,138.207443 
	C7.017385,148.831879 5.469958,160.120850 2.967957,171.097794 
	C2.765960,171.984009 2.147763,172.775375 1.361484,173.305405 
	C1.000000,115.739647 1.000000,58.479294 1.000000,1.000000 
	C58.020706,1.000000 115.041695,1.000000 172.531342,0.999999 
z"/>
<path fill="#000000" opacity="1.000000" stroke="none" 
	d="
M401.000000,172.531342 
	C400.333527,172.184113 399.189301,171.431549 399.071533,170.542938 
	C396.966675,154.661255 392.932190,139.236511 386.148682,124.790253 
	C380.090149,111.887985 373.605530,99.029938 365.809784,87.134895 
	C353.356812,68.133720 337.338867,52.315598 318.858612,38.892826 
	C301.906311,26.579870 283.518768,17.142458 263.792664,10.561784 
	C253.168182,7.017437 241.879181,5.469975 230.902222,2.967957 
	C230.015991,2.765955 229.224640,2.147762 228.694595,1.361484 
	C286.260345,1.000000 343.520691,1.000000 401.000000,1.000000 
	C401.000000,58.020706 401.000000,115.041695 401.000000,172.531342 
z"/>
<path fill="#000000" opacity="1.000000" stroke="none" 
	d="
M1.000000,229.468658 
	C1.666460,229.815887 2.810667,230.568451 2.928442,231.457062 
	C5.033357,247.338730 9.067758,262.763519 15.851347,277.209747 
	C21.909910,290.112000 28.394402,302.970123 36.190216,314.865112 
	C48.643284,333.866211 64.661072,349.684479 83.141418,363.107208 
	C100.093742,375.420074 118.481277,384.857513 138.207352,391.438232 
	C148.831787,394.982605 160.120789,396.530029 171.097733,399.032013 
	C171.983978,399.234039 172.775345,399.852295 173.305389,400.638550 
	C115.739647,401.000000 58.479294,401.000000 1.000000,401.000000 
	C1.000000,343.979279 1.000000,286.958313 1.000000,229.468658 
z"/>
<path fill="#000000" opacity="1.000000" stroke="none" 
	d="
M229.468658,401.000000 
	C229.815887,400.333527 230.568451,399.189301 231.457062,399.071564 
	C247.338730,396.966675 262.763458,392.932190 277.209717,386.148651 
	C290.112000,380.090088 302.970123,373.605621 314.865112,365.809784 
	C333.866272,353.356720 349.684509,337.338867 363.107269,318.858521 
	C375.420166,301.906189 384.857544,283.518646 391.438232,263.792572 
	C394.982605,253.168091 396.529999,241.879074 399.032043,230.902130 
	C399.234039,230.015930 399.852264,229.224609 400.638550,228.694595 
	C401.000000,286.260345 401.000000,343.520721 401.000000,401.000000 
	C343.979279,401.000000 286.958313,401.000000 229.468658,401.000000 
z"/>
<path fill="#86D2D2" opacity="1.000000" stroke="none" 
	d="
M112.103058,258.890991 
	C112.039276,253.568741 111.921555,248.246506 111.920082,242.924240 
	C111.906044,192.168640 111.911705,141.413025 111.911705,90.657425 
	C111.911705,88.699265 111.911705,86.741104 111.911705,84.149780 
	C152.970444,84.149780 193.509979,84.149780 234.519073,84.666412 
	C234.965866,143.054169 234.943069,200.925308 234.920273,258.796448 
	C234.920273,258.796448 234.978714,258.891785 234.521912,258.916534 
	C193.411102,258.924530 152.757080,258.907745 112.103058,258.890991 
z"/>
<path fill="#8FD5D5" opacity="1.000000" stroke="none" 
	d="
M235.385132,258.871582 
	C234.943069,200.925308 234.965866,143.054169 234.979584,84.742706 
	C256.530273,84.003014 275.990417,89.805176 293.100494,103.373245 
	C305.804016,113.446968 315.096252,126.018974 320.778900,140.936005 
	C326.268951,155.347519 327.524170,170.517838 324.906036,185.842392 
	C321.526154,205.625397 312.581116,222.431091 297.609589,235.872040 
	C284.063995,248.032837 268.205902,255.415619 250.179825,257.944702 
	C245.449463,258.608368 240.629059,258.630127 235.385132,258.871582 
z"/>
<path fill="#C9E8E9" opacity="1.000000" stroke="none" 
	d="
M112.061249,259.368347 
	C152.757080,258.907745 193.411102,258.924530 234.533142,258.971313 
	C234.992462,281.636749 234.907166,304.272644 235.049896,326.907104 
	C235.073883,330.712250 234.178940,332.074585 230.079544,332.057648 
	C192.298920,331.901520 154.517242,331.918823 116.736359,332.039154 
	C113.034615,332.050964 111.878067,331.008606 111.906281,327.251831 
	C112.075035,304.784088 112.007637,282.314606 112.061249,259.368347 
z"/>
</svg>