<?xml version="1.0" standalone="no"?>
<!DOCTYPE svg PUBLIC "-//W3C//DTD SVG 20010904//EN"
 "http://www.w3.org/TR/2001/REC-SVG-20010904/DTD/svg10.dtd">
<svg version="1.0" xmlns="http://www.w3.org/2000/svg"
 width="920.000000pt" height="920.000000pt" viewBox="0 0 920.000000 920.000000"
 preserveAspectRatio="xMidYMid meet">

<g transform="translate(0.000000,920.000000) scale(0.100000,-0.100000)"
fill="#000000" stroke="none">
<path d="M4311 7519 c-239 -25 -506 -113 -717 -237 -328 -191 -631 -574 -724
-914 -54 -199 -70 -485 -49 -888 8 -146 14 -299 14 -340 l0 -75 -49 -9 c-66
-13 -168 6 -281 52 -77 32 -100 37 -165 36 -234 -2 -389 -199 -290 -370 59
-103 182 -180 410 -255 277 -91 363 -172 331 -314 -24 -109 -180 -383 -310
-545 -82 -102 -238 -255 -336 -330 -170 -129 -350 -216 -535 -260 -145 -35
-178 -48 -206 -86 -37 -48 -41 -99 -14 -162 64 -148 293 -253 728 -333 58 -10
109 -22 113 -27 4 -4 24 -76 44 -160 28 -116 43 -160 63 -184 53 -63 126 -72
301 -38 150 29 302 39 433 29 214 -17 290 -50 576 -247 261 -180 337 -223 497
-279 120 -41 195 -54 365 -60 258 -9 415 21 616 116 116 55 166 86 363 224
307 215 402 249 695 249 105 0 179 -7 301 -27 200 -34 242 -30 296 24 39 38
53 78 97 265 12 49 23 90 25 92 2 2 55 13 118 25 406 72 657 184 722 321 35
74 13 171 -47 206 -17 11 -76 29 -131 42 -133 30 -218 61 -345 126 -285 146
-545 403 -739 729 -122 205 -164 341 -128 412 41 78 113 121 320 192 181 62
291 118 355 181 66 65 87 110 87 186 0 76 -37 142 -108 190 -126 87 -252 96
-412 32 -49 -20 -116 -42 -149 -48 -56 -11 -141 -7 -150 8 -2 4 2 104 10 222
20 304 20 713 -1 865 -29 217 -67 333 -167 510 -275 488 -745 792 -1320 854
-113 13 -386 12 -507 0z m458 -149 c283 -27 543 -117 770 -267 113 -75 308
-270 388 -388 67 -99 152 -261 178 -339 67 -204 81 -566 44 -1168 l-13 -207
23 -25 c36 -38 117 -68 197 -74 81 -5 185 18 311 68 87 35 151 37 214 5 169
-86 79 -199 -243 -306 -187 -62 -282 -111 -354 -183 -72 -73 -98 -135 -97
-236 1 -83 29 -165 104 -308 110 -211 233 -379 402 -551 164 -166 349 -299
531 -381 87 -38 274 -98 337 -106 27 -4 49 -10 49 -15 0 -21 -56 -70 -117
-101 -114 -59 -311 -115 -538 -154 -177 -29 -184 -38 -245 -304 -12 -52 -27
-100 -32 -107 -5 -7 -22 -10 -36 -8 -15 2 -85 14 -157 27 -102 17 -169 22
-310 21 -303 0 -428 -39 -690 -218 -272 -186 -323 -218 -410 -260 -186 -90
-336 -120 -560 -112 -173 7 -293 36 -439 105 -105 50 -130 66 -407 254 -172
117 -231 150 -331 184 -103 35 -208 48 -383 48 -133 0 -186 -4 -317 -28 -86
-16 -163 -26 -171 -23 -10 4 -26 53 -47 139 -17 73 -39 151 -49 173 -21 47
-73 95 -104 95 -12 0 -98 16 -192 35 -179 36 -320 78 -413 122 -58 27 -132 87
-132 107 0 6 30 17 67 24 162 31 375 120 538 226 290 189 564 508 730 851 68
139 85 195 85 273 0 186 -129 305 -440 407 -203 66 -340 154 -340 218 0 41 76
97 151 111 28 5 54 -1 114 -25 134 -53 227 -72 330 -66 95 5 146 21 203 65
l34 26 -6 105 c-4 59 -12 174 -18 256 -15 213 -15 649 1 765 29 222 92 387
216 574 328 493 903 739 1574 676z"/>
</g>
</svg>
